<?xml version="1.0" encoding="utf-8"?>
<!-- Generator: Adobe Illustrator 21.1.0, SVG Export Plug-In . SVG Version: 6.00 Build 0)  -->
<svg version="1.1" id="Layer_1" xmlns:x="&ns_extend;" xmlns:i="&ns_ai;" xmlns:graph="&ns_graphs;"
	 xmlns="http://www.w3.org/2000/svg" xmlns:xlink="http://www.w3.org/1999/xlink" x="0px" y="0px" viewBox="0 0 192 192"
	 style="enable-background:new 0 0 192 192;" xml:space="preserve">
<style type="text/css">
	.st0{display:none;fill:#FFF3E0;}
	.st1{display:none;fill:#607D8B;}
	.st2{display:none;}
	.st3{display:inline;opacity:0.2;}
	.st4{fill:#263238;}
	.st5{display:inline;}
	.st6{fill:#03A9F4;}
	.st7{display:none;fill:none;stroke:#231F20;stroke-width:0.5;stroke-miterlimit:10;}
	.st8{fill:#FB8C00;}
	.st9{opacity:0.2;}
	.st10{opacity:0.2;fill:#3E2723;}
	.st11{fill:#FFB74D;}
	.st12{fill:#FF9800;}
	.st13{fill:#0288D1;}
</style>
<metadata>
	<sfw  xmlns="&ns_sfw;">
		<slices></slices>
		<sliceSourceBounds  bottomLeftOrigin="true" height="213.6" width="192" x="0" y="-207.4"></sliceSourceBounds>
	</sfw>
</metadata>
<rect class="st0" width="192" height="192"/>
<path class="st1" d="M15.9,95.9v0.1c0,28.6,15.2,55,40,69.3l0.1,0.1c24.8,14.3,55.2,14.3,80,0l40.1-23.2V95.9
	c0-28.6-15.2-55-40-69.3l-0.1-0.1c-24.8-14.3-55.2-14.3-80,0l-0.1,0.1C31.1,40.9,15.9,67.4,15.9,95.9z"/>
<g class="st2">
	<g class="st3">
		<path class="st4" d="M96,97L26.7,57C41,32.3,67.5,17,96,17c23.6,0,46.1,10.5,61.3,28.6L96,97z"/>
	</g>
	<g class="st5">
		<path class="st6" d="M96,96L26.7,56C41,31.3,67.5,16,96,16c23.6,0,46.1,10.5,61.3,28.6L96,96z"/>
	</g>
</g>
<g class="st2">
	<g class="st3">
		<path class="st4" d="M96,97l69.3-40c7,12.2,10.7,26,10.7,40c0,38.7-28,72.1-66.1,78.8L96,97z"/>
	</g>
	<g class="st5">
		<path class="st6" d="M96,96l69.3-40c7,12.2,10.7,26,10.7,40c0,38.7-28,72.1-66.1,78.8L96,96z"/>
	</g>
</g>
<path class="st7" d="M96,96l69.3-40c1.2,2,2.2,4.1,3.2,6.2s1.9,4.3,2.7,6.4L96,96z"/>
<g class="st2">
	<g class="st3">
		<path class="st4" d="M96,97v80c-43.9,0-80-36.1-80-80c0-9.3,1.6-18.6,4.8-27.4L96,97z"/>
	</g>
	<g class="st5">
		<path class="st6" d="M96,96v80c-43.9,0-80-36.1-80-80c0-9.3,1.6-18.6,4.8-27.4L96,96z"/>
	</g>
</g>
<g>
	
		<image style="overflow:visible;opacity:0.2;" width="725" height="504" xlink:href="60A9B7DF.png"  transform="matrix(0.24 0 0 0.24 6.48 -6.24)">
	</image>
	<g>
		<path class="st8" d="M77,2L77,2C55,2,34.7,9.3,18.5,21.7L77,98.5l61.8-44.9L168.2,67C155.1,29.2,119.2,2,77,2z"/>
	</g>
</g>
<g>
	
		<image style="overflow:visible;opacity:0.2;" width="375" height="619" xlink:href="60A9B7DA.png"  transform="matrix(0.24 0 0 0.24 95.76 58.8)">
	</image>
	<g>
		<g class="st9">
			<path d="M168.2,68l-60.4,47.4V191c38.2-12.9,65.7-49,65.7-91.5v0C173.5,88.5,171.6,77.9,168.2,68z"/>
		</g>
		<g>
			<path class="st6" d="M168.2,67l-60.4,47.4V190c38.2-12.9,65.7-49,65.7-91.5v0C173.5,87.5,171.6,76.9,168.2,67z"/>
		</g>
	</g>
</g>
<polygon class="st10" points="80.6,52.1 18.8,21.5 77,98.5 "/>
<polygon class="st11" points="77,44.8 18.8,21.5 77,98.5 "/>
<g>
	<g class="st9">
		<circle cx="70.8" cy="170.1" r="9.8"/>
	</g>
	<g>
		<circle class="st12" cx="70.8" cy="169.6" r="9.8"/>
	</g>
</g>
<g>
	<g class="st9">
		<circle cx="45.3" cy="170.1" r="9.8"/>
	</g>
	<g>
		<circle class="st13" cx="45.3" cy="169.6" r="9.8"/>
	</g>
</g>
<g>
	
		<image style="overflow:visible;opacity:0.2;" width="182" height="183" xlink:href="60A9B7D9.png"  transform="matrix(0.24 0 0 0.24 23.52 151.68)">
	</image>
	<g>
		<circle class="st13" cx="45.3" cy="169.6" r="9.8"/>
	</g>
</g>
</svg>
